<?xml version="1.0" standalone="no"?><svg viewBox="0 0 1706.667 1638.667" xmlns="http://www.w3.org/2000/svg" xmlns:xlink="http://www.w3.org/1999/xlink"><style>:root>svg{display:none}:root>svg:target{display:block}</style><svg version="1.0" viewBox="0 0 1280 1229" id="2790611" xmlns="http://www.w3.org/2000/svg"><path d="M0 614.5V1229l153.8-.2 153.7-.3.5-302.5.5-302.4 12.7 36.4c6.9 20.1 24.4 70.2 38.8 111.5 14.4 41.2 35.1 100.6 46 132 29.9 85.8 55 157.8 84 241 14.4 41.2 26.9 77.1 27.8 79.8l1.6 4.7 120.5-.2 120.6-.3 4.6-13.5c2.6-7.4 14.7-42.1 26.9-77s31.1-89.1 42-120.5c10.9-31.4 28.4-81.5 38.9-111.5 59.4-170.6 72.5-208.2 84.9-243.8l13.7-39.3.3 303 .2 303.1h308V0H908.3l-12.6 35.7C874.9 94.9 824.4 238.5 779 367.5c-12.2 34.6-29.3 83.2-38 108-8.7 24.7-25.6 72.7-37.5 106.5-55 156.4-62 175.9-62.6 175.2-.4-.4-13-35.1-27.9-77.2-41.4-116.4-42.4-119.4-51-143.5-4.4-12.4-11.6-32.6-16-45-4.4-12.4-11.6-32.6-16-45-11-31-21.9-61.7-34.3-96.5-5.8-16.2-13.9-39.2-18.1-51-4.2-11.8-29.8-83.8-56.9-160L371.4.5 185.7.2 0 0v614.5z"/></svg></svg>